<svg width="236" height="26" viewBox="0 0 236 26" fill="none" xmlns="http://www.w3.org/2000/svg">
<path fill-rule="evenodd" clip-rule="evenodd" d="M75.6512 23.3034C75.6512 23.8102 75.3959 24.0637 74.8852 24.0637H65.8883C65.671 24.0637 65.4944 24.0003 65.3586 23.8736C65.2228 23.7469 65.1549 23.5678 65.1549 23.3364C65.1549 23.1381 65.201 22.9783 65.2934 22.8571C65.3858 22.7359 65.5297 22.6367 65.7253 22.5595L66.4262 22.3447C66.6 22.2896 66.7358 22.1849 66.8336 22.0306C66.9314 21.8764 66.9803 21.656 66.9803 21.3695V11.8157C66.9803 11.6615 66.9423 11.532 66.8662 11.4273C66.7902 11.3226 66.6489 11.2262 66.4425 11.1381L65.4971 10.824C65.2472 10.7028 65.0679 10.5733 64.9593 10.4356C64.8506 10.2978 64.7963 10.1298 64.7963 9.93145C64.7963 9.7331 64.8642 9.57057 65 9.44385L65.0534 9.3993C65.1835 9.30228 65.3532 9.25377 65.5623 9.25377H66.9925L66.9813 9.15717C66.9508 8.96399 66.8744 8.77856 66.7521 8.60087C66.5891 8.36396 66.4044 8.09674 66.198 7.79922C65.9915 7.5017 65.8068 7.14633 65.6438 6.7331C65.4808 6.31988 65.3993 5.81024 65.3993 5.20418C65.3993 3.76065 65.8883 2.60638 66.8662 1.74137C67.8441 0.876355 69.235 0.443848 71.0387 0.443848C72.2013 0.443848 73.1657 0.631175 73.9317 1.00583C74.6977 1.38049 75.2709 1.87911 75.6512 2.5017C76.0315 3.12429 76.2217 3.80473 76.2217 4.54302C76.2217 5.41354 75.9962 6.06644 75.5453 6.5017C75.0943 6.93696 74.5157 7.15459 73.8095 7.15459C73.0271 7.15459 72.3969 6.90115 71.9188 6.39426C71.4407 5.88737 71.2017 5.2152 71.2017 4.37773V2.90666C71.2017 2.52098 71.1256 2.23724 70.9735 2.05542C70.8214 1.8736 70.5877 1.78269 70.2726 1.78269C69.8706 1.78269 69.5664 1.92043 69.3599 2.19591C69.1535 2.4714 69.0502 2.86809 69.0502 3.386C69.0502 3.91492 69.1725 4.41079 69.417 4.8736C69.6614 5.33641 69.963 5.76892 70.3215 6.17112C70.6801 6.57332 71.0387 6.959 71.3973 7.32815C71.7558 7.69729 72.0573 8.06093 72.3018 8.41905L72.3715 8.52641C72.5035 8.74096 72.5915 8.95451 72.6355 9.16707L72.6504 9.25377H75.0645C75.3144 9.25377 75.5072 9.30611 75.6431 9.41079C75.7789 9.51547 75.8468 9.67801 75.8468 9.89839C75.8468 10.229 75.7055 10.4989 75.423 10.7083C75.1405 10.9177 74.695 11.0224 74.0865 11.0224H72.9293V21.3199C72.9293 21.6284 72.9755 21.8653 73.0679 22.0306C73.1602 22.1959 73.3096 22.2951 73.5161 22.3281L74.9178 22.543C75.1677 22.5761 75.3524 22.656 75.4719 22.7827C75.5914 22.9094 75.6512 23.083 75.6512 23.3034ZM43.5591 23.6835C42.5812 24.1573 41.4403 24.3943 40.1364 24.3943C38.7564 24.3943 37.5205 24.1022 36.4284 23.5182C35.3364 22.9342 34.4753 22.0885 33.8451 20.981C33.2149 19.8736 32.8998 18.5265 32.8998 16.9397C32.8998 15.408 33.2285 14.0389 33.8859 12.8323C34.5432 11.6257 35.4587 10.6725 36.6322 9.97277C37.8057 9.27305 39.1748 8.92319 40.7394 8.92319C42.0759 8.92319 43.2033 9.12153 44.1214 9.51823C45.0396 9.91492 45.7404 10.4521 46.2239 11.1298C46.7075 11.8075 46.9492 12.5651 46.9492 13.4025C46.9492 14.2841 46.6966 14.9755 46.1913 15.4769C45.6861 15.9783 44.9988 16.229 44.1296 16.229C43.2386 16.229 42.5622 15.9728 42.1004 15.4604C41.6386 14.948 41.4077 14.2455 41.4077 13.3529V12.2951C41.4077 11.7551 41.3099 11.3474 41.1143 11.0719C40.9187 10.7965 40.6417 10.6587 40.2831 10.6587C39.9245 10.6587 39.6013 10.8047 39.3133 11.0967C39.0254 11.3888 38.8026 11.8268 38.6451 12.4108C38.4875 12.9948 38.4087 13.7166 38.4087 14.5761C38.4087 15.8102 38.5907 16.8461 38.9547 17.6835C39.3187 18.521 39.8159 19.1491 40.4461 19.5678C41.0763 19.9865 41.7934 20.1959 42.5975 20.1959C43.4016 20.1959 44.0752 20.0775 44.6185 19.8405C45.1618 19.6036 45.5801 19.2042 45.8735 18.6422C46.0365 18.4879 46.1642 18.3888 46.2565 18.3447C46.3489 18.3006 46.4385 18.2786 46.5255 18.2786C46.6341 18.2896 46.7238 18.3419 46.7944 18.4356C46.865 18.5292 46.8949 18.6753 46.884 18.8736C46.7971 19.9535 46.4657 20.9067 45.8898 21.7331C45.3139 22.5595 44.537 23.2097 43.5591 23.6835ZM60.1267 23.3529C58.9043 24.0251 57.4836 24.3612 55.8646 24.3612C54.2891 24.3612 52.9064 24.0334 51.7166 23.3777C50.5268 22.7221 49.6005 21.8157 48.9377 20.6587C48.2749 19.5017 47.9435 18.1629 47.9435 16.6422C47.9435 15.1876 48.2912 13.8791 48.9866 12.7166C49.682 11.554 50.6436 10.6312 51.8714 9.94798C53.0993 9.26478 54.5118 8.92319 56.1091 8.92319C57.6955 8.92319 59.0809 9.25377 60.2653 9.91492C61.4496 10.5761 62.3732 11.4907 63.036 12.6587C63.6988 13.8268 64.0303 15.1766 64.0303 16.7083C64.0303 18.1629 63.6853 19.4659 62.9953 20.6174C62.3053 21.7689 61.3491 22.6808 60.1267 23.3529ZM57.1033 22.6422C56.7665 22.7083 56.4378 22.5595 56.1172 22.1959C55.7967 21.8323 55.4925 21.2207 55.2045 20.3612C54.9166 19.5017 54.6422 18.3722 54.3814 16.9728C54.1315 15.5733 53.9903 14.4218 53.9577 13.5182C53.9251 12.6146 53.9903 11.9315 54.1533 11.4686C54.3162 11.0058 54.5662 10.7359 54.903 10.6587C55.2398 10.5926 55.5685 10.7414 55.8891 11.105C56.2096 11.4686 56.5166 12.0802 56.8099 12.9397C57.1033 13.7992 57.3804 14.9287 57.6412 16.3281C57.9019 17.7276 58.0459 18.8819 58.0731 19.791C58.1003 20.7 58.0296 21.386 57.8612 21.8488C57.6928 22.3116 57.4402 22.5761 57.1033 22.6422ZM86.2616 24.0637C86.7723 24.0637 87.0277 23.8102 87.0277 23.3034C87.0277 23.083 86.9679 22.9094 86.8484 22.7827C86.7289 22.656 86.5442 22.5761 86.2942 22.543L84.8926 22.3281C84.6861 22.2951 84.5367 22.1959 84.4443 22.0306C84.352 21.8653 84.3058 21.6284 84.3058 21.3199V11.0224H85.463C86.0715 11.0224 86.517 10.9177 86.7995 10.7083C87.082 10.4989 87.2233 10.229 87.2233 9.89839C87.2233 9.67801 87.1554 9.51547 87.0195 9.41079C86.8837 9.30611 86.6908 9.25377 86.4409 9.25377H84.0269L84.012 9.16707C83.968 8.95451 83.88 8.74096 83.748 8.52641L83.6783 8.41905C83.4338 8.06093 83.1323 7.69729 82.7737 7.32815C82.4152 6.959 82.0566 6.57332 81.698 6.17112C81.3394 5.76892 81.0379 5.33641 80.7934 4.8736C80.549 4.41079 80.4267 3.91492 80.4267 3.386C80.4267 2.86809 80.5299 2.4714 80.7364 2.19591C80.9428 1.92043 81.2471 1.78269 81.6491 1.78269C81.9642 1.78269 82.1978 1.8736 82.35 2.05542C82.5021 2.23724 82.5781 2.52098 82.5781 2.90666V4.37773C82.5781 5.2152 82.8172 5.88737 83.2953 6.39426C83.7734 6.90115 84.4036 7.15459 85.1859 7.15459C85.8922 7.15459 86.4708 6.93696 86.9217 6.5017C87.3727 6.06644 87.5981 5.41354 87.5981 4.54302C87.5981 3.80473 87.408 3.12429 87.0277 2.5017C86.6474 1.87911 86.0742 1.38049 85.3082 1.00583C84.5421 0.631175 83.5778 0.443848 82.4152 0.443848C80.6114 0.443848 79.2206 0.876355 78.2427 1.74137C77.2648 2.60638 76.7758 3.76065 76.7758 5.20418C76.7758 5.81024 76.8573 6.31988 77.0203 6.7331C77.1833 7.14633 77.368 7.5017 77.5745 7.79922C77.7809 8.09674 77.9656 8.36396 78.1286 8.60087C78.2508 8.77856 78.3272 8.96399 78.3578 9.15717L78.369 9.25377H76.9388C76.7296 9.25377 76.56 9.30228 76.4299 9.3993L76.3765 9.44385C76.2407 9.57057 76.1728 9.7331 76.1728 9.93145C76.1728 10.1298 76.2271 10.2978 76.3358 10.4356C76.4444 10.5733 76.6237 10.7028 76.8736 10.824L77.8189 11.1381C78.0254 11.2262 78.1666 11.3226 78.2427 11.4273C78.3188 11.532 78.3568 11.6615 78.3568 11.8157V21.3695C78.3568 21.656 78.3079 21.8764 78.2101 22.0306C78.1123 22.1849 77.9765 22.2896 77.8026 22.3447L77.1018 22.5595C76.9062 22.6367 76.7622 22.7359 76.6699 22.8571C76.5775 22.9783 76.5313 23.1381 76.5313 23.3364C76.5313 23.5678 76.5992 23.7469 76.7351 23.8736C76.8709 24.0003 77.0475 24.0637 77.2648 24.0637H86.2616ZM99.0235 23.5843C97.9695 24.1243 96.7526 24.3943 95.3726 24.3943C93.8514 24.3943 92.5149 24.0775 91.3631 23.4438C90.2114 22.8102 89.3122 21.9232 88.6657 20.7827C88.0192 19.6422 87.6959 18.3226 87.6959 16.824C87.6959 15.2483 88.0083 13.8681 88.6331 12.6835C89.2579 11.4989 90.1625 10.5761 91.3468 9.91492C92.5312 9.25377 93.9546 8.92319 95.6171 8.92319C97.0296 8.92319 98.2466 9.20142 99.268 9.7579C100.289 10.3144 101.074 11.0692 101.623 12.0224C102.172 12.9755 102.446 14.0361 102.446 15.2042C102.446 15.7111 102.31 16.1105 102.039 16.4025L101.974 16.4673C101.706 16.7161 101.337 16.8405 100.865 16.8405H93.4145L93.4305 16.9168C93.6282 17.8243 93.9659 18.5509 94.4436 19.0967C95.2585 20.0279 96.3451 20.4934 97.7033 20.4934C98.5726 20.4934 99.3413 20.2951 100.01 19.8984C100.678 19.5017 101.126 18.9507 101.354 18.2455C101.485 18.1022 101.601 18.0058 101.705 17.9562C101.808 17.9067 101.898 17.8819 101.974 17.8819C102.082 17.8819 102.175 17.9259 102.251 18.0141C102.327 18.1022 102.365 18.251 102.365 18.4604C102.365 19.5403 102.071 20.5292 101.485 21.4273C100.898 22.3254 100.077 23.0444 99.0235 23.5843ZM93.2444 15.5156C93.2289 15.262 93.2212 14.9984 93.2212 14.7248C93.2212 13.689 93.2972 12.8736 93.4494 12.2786C93.6015 11.6835 93.7971 11.262 94.0361 11.0141C94.2752 10.7662 94.5414 10.6422 94.8347 10.6422C95.215 10.6422 95.5709 10.9673 95.9023 11.6174C96.2337 12.2675 96.3994 13.3474 96.3994 14.8571C96.3994 15.3199 96.193 15.5513 95.7801 15.5513H93.2465L93.2444 15.5156ZM114.605 23.5843C113.551 24.1243 112.334 24.3943 110.954 24.3943C109.433 24.3943 108.096 24.0775 106.945 23.4438C105.793 22.8102 104.894 21.9232 104.247 20.7827C103.601 19.6422 103.277 18.3226 103.277 16.824C103.277 15.2483 103.59 13.8681 104.215 12.6835C104.839 11.4989 105.744 10.5761 106.928 9.91492C108.113 9.25377 109.536 8.92319 111.199 8.92319C112.611 8.92319 113.828 9.20142 114.85 9.7579C115.871 10.3144 116.656 11.0692 117.205 12.0224C117.753 12.9755 118.028 14.0361 118.028 15.2042C118.028 15.7111 117.892 16.1105 117.62 16.4025L117.555 16.4673C117.288 16.7161 116.918 16.8405 116.447 16.8405H108.996L109.012 16.9168C109.21 17.8243 109.547 18.5509 110.025 19.0967C110.84 20.0279 111.927 20.4934 113.285 20.4934C114.154 20.4934 114.923 20.2951 115.591 19.8984C116.259 19.5017 116.708 18.9507 116.936 18.2455C117.066 18.1022 117.183 18.0058 117.286 17.9562C117.389 17.9067 117.479 17.8819 117.555 17.8819C117.664 17.8819 117.756 17.9259 117.832 18.0141C117.908 18.1022 117.946 18.251 117.946 18.4604C117.946 19.5403 117.653 20.5292 117.066 21.4273C116.479 22.3254 115.659 23.0444 114.605 23.5843ZM108.826 15.5156C108.81 15.262 108.803 14.9984 108.803 14.7248C108.803 13.689 108.879 12.8736 109.031 12.2786C109.183 11.6835 109.379 11.262 109.618 11.0141C109.857 10.7662 110.123 10.6422 110.416 10.6422C110.797 10.6422 111.152 10.9673 111.484 11.6174C111.815 12.2675 111.981 13.3474 111.981 14.8571C111.981 15.3199 111.775 15.5513 111.362 15.5513H108.828L108.826 15.5156ZM128.5 23.8571C128.364 23.9948 128.166 24.0637 127.905 24.0637H119.755C119.516 24.0637 119.329 23.9976 119.193 23.8653C119.057 23.7331 118.989 23.5513 118.989 23.3199C118.989 23.1436 119.03 22.9976 119.112 22.8819C119.193 22.7662 119.304 22.6587 119.446 22.5596L119.821 22.4108C119.962 22.3447 120.06 22.24 120.114 22.0967C120.168 21.9535 120.195 21.7166 120.195 21.386V12.9893C120.195 12.7248 120.166 12.5348 120.106 12.4191C120.046 12.3034 119.946 12.2124 119.804 12.1463L119.381 12.0967C119.228 12.0086 119.117 11.9149 119.046 11.8157C118.976 11.7166 118.94 11.5899 118.94 11.4356C118.94 11.2593 118.995 11.1022 119.103 10.9645C119.212 10.8268 119.397 10.7083 119.658 10.6091L124.286 9.27029C124.558 9.1601 124.786 9.08297 124.971 9.03889C125.156 8.99481 125.313 8.97277 125.444 8.97277C125.628 8.97277 125.767 9.03889 125.859 9.17112L125.889 9.21907C125.965 9.35729 126.018 9.57822 126.047 9.88186L126.171 12.4503L126.199 12.3555C126.254 12.1766 126.315 12.0049 126.381 11.8405C126.777 10.8543 127.302 10.1215 127.954 9.64219C128.606 9.16286 129.317 8.92319 130.089 8.92319C131.023 8.92319 131.74 9.23724 132.24 9.86534C132.74 10.4934 132.99 11.4466 132.99 12.7248C132.99 13.9921 132.729 14.9232 132.208 15.5182C131.686 16.1133 131.012 16.4108 130.187 16.4108C129.382 16.4108 128.788 16.2069 128.402 15.7992C128.016 15.3915 127.812 14.813 127.791 14.0637L127.774 13.4025C127.763 13.1491 127.715 12.9507 127.628 12.8075C127.541 12.6642 127.399 12.5926 127.204 12.5926C127.008 12.5926 126.837 12.6945 126.691 12.8984C126.544 13.1023 126.432 13.4135 126.356 13.8323C126.28 14.251 126.242 14.7854 126.242 15.4356V21.2538C126.242 21.5623 126.291 21.8075 126.389 21.9893C126.487 22.1711 126.639 22.2841 126.845 22.3281L128.068 22.5761C128.296 22.6091 128.459 22.6945 128.557 22.8323C128.654 22.97 128.703 23.1326 128.703 23.3199C128.703 23.5403 128.635 23.7193 128.5 23.8571ZM141.53 24.3612C143.149 24.3612 144.57 24.0251 145.793 23.3529C147.015 22.6808 147.971 21.7689 148.661 20.6174C149.351 19.4659 149.696 18.1629 149.696 16.7083C149.696 15.1766 149.365 13.8268 148.702 12.6587C148.039 11.4907 147.115 10.5761 145.931 9.91492C144.747 9.25377 143.361 8.92319 141.775 8.92319C140.178 8.92319 138.765 9.26478 137.537 9.94798C136.309 10.6312 135.348 11.554 134.652 12.7166C133.957 13.8791 133.609 15.1876 133.609 16.6422C133.609 18.1629 133.941 19.5017 134.604 20.6587C135.266 21.8157 136.193 22.7221 137.382 23.3777C138.572 24.0334 139.955 24.3612 141.53 24.3612ZM141.783 22.1959C142.104 22.5595 142.432 22.7083 142.769 22.6422C143.106 22.5761 143.359 22.3116 143.527 21.8488C143.695 21.386 143.766 20.7 143.739 19.791C143.712 18.8819 143.568 17.7276 143.307 16.3281C143.046 14.9287 142.769 13.7992 142.476 12.9397C142.182 12.0802 141.875 11.4686 141.555 11.105C141.234 10.7414 140.906 10.5926 140.569 10.6587C140.232 10.7359 139.982 11.0058 139.819 11.4686C139.656 11.9315 139.591 12.6146 139.624 13.5182C139.656 14.4218 139.797 15.5733 140.047 16.9728C140.308 18.3722 140.582 19.5017 140.87 20.3612C141.158 21.2207 141.463 21.8323 141.783 22.1959ZM162.621 24.3943C163.534 24.3943 164.283 24.2262 164.87 23.8901C165.457 23.554 165.894 23.1546 166.182 22.6918C166.47 22.229 166.614 21.8047 166.614 21.4191C166.614 21.2538 166.579 21.116 166.508 21.0058C166.438 20.8956 166.342 20.8405 166.223 20.8405C166.169 20.8405 166.12 20.8516 166.076 20.8736C166.033 20.8956 165.995 20.9287 165.962 20.9728C165.908 21.1711 165.824 21.3089 165.71 21.386C165.595 21.4631 165.473 21.5017 165.343 21.5017C165.158 21.5017 165.02 21.4383 164.927 21.3116C164.835 21.1849 164.789 21.0168 164.789 20.8075V13.5017C164.789 12.0472 164.297 10.9204 163.314 10.1215C162.33 9.32264 160.79 8.92319 158.693 8.92319C157.063 8.92319 155.702 9.12704 154.61 9.53476C153.518 9.94247 152.698 10.4631 152.149 11.0967C151.6 11.7303 151.326 12.3777 151.326 13.0389C151.326 13.7441 151.53 14.2813 151.937 14.6505C152.345 15.0196 152.934 15.2042 153.706 15.2042C154.651 15.2042 155.395 14.948 155.938 14.4356C156.482 13.9232 156.753 13.2593 156.753 12.4438V11.1876C156.753 10.8791 156.848 10.6394 157.039 10.4686C157.229 10.2978 157.465 10.2124 157.748 10.2124C158.052 10.2124 158.294 10.3254 158.473 10.5513C158.652 10.7772 158.742 11.083 158.742 11.4686L158.741 16.2868L158.655 16.268C158.393 16.2173 158.089 16.1884 157.744 16.1812L157.568 16.1794C155.232 16.1794 153.491 16.5761 152.345 17.3695C151.198 18.1629 150.625 19.2703 150.625 20.6918C150.625 21.7717 151.019 22.6587 151.807 23.3529C152.595 24.0472 153.64 24.3943 154.944 24.3943C155.922 24.3943 156.835 24.1932 157.682 23.791C158.318 23.4893 158.835 23.0931 159.232 22.6024L159.254 22.5738L159.278 22.6477C159.404 23.005 159.633 23.3251 159.967 23.608L160.07 23.6918C160.673 24.1601 161.523 24.3943 162.621 24.3943ZM157.006 21.2786C157.272 21.6367 157.623 21.8157 158.057 21.8157L158.151 21.8125C158.336 21.7996 158.515 21.748 158.688 21.6576L158.741 21.6275V17.386L158.66 17.3612C158.476 17.3116 158.258 17.2868 158.008 17.2868C157.585 17.2868 157.245 17.4852 156.99 17.8819C156.734 18.2786 156.607 18.8626 156.607 19.6339C156.607 20.3722 156.74 20.9204 157.006 21.2786ZM174.111 24.4438C176.046 24.4438 177.529 23.9976 178.561 23.105C179.593 22.2124 180.109 20.9948 180.109 19.4521C180.109 18.5155 179.936 17.6945 179.588 16.9893C179.24 16.2841 178.632 15.6587 177.762 15.1133C176.893 14.5678 175.671 14.0527 174.095 13.5678C173.508 13.3805 173.055 13.1904 172.734 12.9976C172.414 12.8047 172.194 12.5981 172.074 12.3777C171.955 12.1573 171.895 11.9204 171.895 11.667C171.895 11.2923 172.031 10.9893 172.302 10.7579C172.574 10.5265 172.976 10.4108 173.508 10.4108C174.247 10.4108 174.945 10.6587 175.603 11.1546C176.26 11.6505 176.986 12.4989 177.779 13.7C177.985 13.9535 178.192 14.1381 178.398 14.2538C178.604 14.3695 178.8 14.4053 178.985 14.3612C179.213 14.2951 179.354 14.1436 179.409 13.9067C179.463 13.6697 179.452 13.3309 179.376 12.8901L178.952 9.84881C178.909 9.52925 178.827 9.30335 178.708 9.17112C178.588 9.03889 178.431 8.97277 178.235 8.97277C178.061 8.97277 177.844 9.03338 177.583 9.15459C177.322 9.2758 177.064 9.39977 176.809 9.52649C176.554 9.65321 176.361 9.71657 176.23 9.71657C176.111 9.71657 175.934 9.65046 175.701 9.51823C175.467 9.386 175.138 9.25377 174.715 9.12153C174.291 8.9893 173.742 8.92319 173.068 8.92319C171.949 8.92319 170.941 9.12704 170.045 9.53476C169.149 9.94247 168.442 10.5237 167.926 11.2786C167.41 12.0334 167.152 12.9342 167.152 13.981C167.152 14.9067 167.345 15.7166 167.731 16.4108C168.116 17.105 168.706 17.7 169.499 18.1959C170.292 18.6918 171.292 19.094 172.498 19.4025C173.28 19.6119 173.881 19.824 174.299 20.0389C174.717 20.2538 175.005 20.4879 175.163 20.7414C175.32 20.9948 175.399 21.2758 175.399 21.5843C175.399 21.9921 175.263 22.3281 174.992 22.5926C174.72 22.8571 174.307 22.9893 173.753 22.9893C173.231 22.9893 172.734 22.8764 172.262 22.6505C171.789 22.4246 171.303 22.0361 170.803 21.4852C170.303 20.9342 169.743 20.1794 169.124 19.2207C168.939 18.9673 168.73 18.791 168.497 18.6918C168.263 18.5926 168.027 18.5981 167.788 18.7083C167.559 18.7965 167.413 18.9838 167.348 19.2703C167.282 19.5568 167.299 19.9094 167.396 20.3281L167.902 23.6174C167.978 23.948 168.086 24.1684 168.228 24.2786C168.369 24.3888 168.521 24.4438 168.684 24.4438C168.869 24.4438 169.094 24.3832 169.36 24.262L170.159 23.8984C170.425 23.7772 170.64 23.7166 170.803 23.7166C170.966 23.7166 171.18 23.7772 171.447 23.8984C171.713 24.0196 172.061 24.1408 172.49 24.262C172.919 24.3832 173.46 24.4438 174.111 24.4438ZM189.563 23.824C188.846 24.2042 187.998 24.3943 187.02 24.3943C185.368 24.3943 184.127 23.9921 183.296 23.1876C182.465 22.3832 182.049 21.116 182.049 19.386V11.9149C182.049 11.6835 182.027 11.5072 181.984 11.386C181.94 11.2648 181.832 11.1656 181.658 11.0885L180.892 10.8405C180.707 10.7524 180.588 10.6449 180.533 10.5182C180.479 10.3915 180.452 10.2345 180.452 10.0472C180.452 9.81575 180.533 9.62567 180.696 9.47691C180.859 9.32815 181.06 9.25377 181.299 9.25377H182.098C182.196 9.25377 182.299 9.2152 182.408 9.13806C182.516 9.06093 182.663 8.90666 182.848 8.67525L185.863 6.14633C186.08 5.88186 186.297 5.68076 186.515 5.54302C186.732 5.40528 186.949 5.33641 187.167 5.33641C187.417 5.33641 187.612 5.41354 187.753 5.56781L187.798 5.6225C187.91 5.77704 187.965 6.00124 187.965 6.29509L187.965 9.25377H191.372C191.611 9.25377 191.796 9.30611 191.926 9.41079C192.056 9.51547 192.122 9.67801 192.122 9.89839C192.122 10.2069 191.986 10.4714 191.714 10.6918L191.653 10.7373C191.38 10.9273 190.965 11.0224 190.41 11.0224H187.965L187.965 18.5596C187.965 19.386 188.104 19.9976 188.381 20.3943C188.658 20.791 189.063 20.9893 189.595 20.9893C189.823 20.9893 190.035 20.9397 190.231 20.8405C190.426 20.7414 190.603 20.6119 190.761 20.4521C190.918 20.2923 191.068 20.1133 191.209 19.9149C191.35 19.7166 191.486 19.5182 191.616 19.3199C191.725 19.2758 191.82 19.2951 191.902 19.3777C191.983 19.4604 192.018 19.6284 192.007 19.8819C191.931 20.7744 191.684 21.5595 191.266 22.2372C190.848 22.9149 190.28 23.4438 189.563 23.824ZM200.238 24.3943C201.618 24.3943 202.835 24.1243 203.889 23.5843C204.943 23.0444 205.764 22.3254 206.35 21.4273C206.937 20.5292 207.23 19.5403 207.23 18.4604C207.23 18.251 207.192 18.1022 207.116 18.0141C207.04 17.9259 206.948 17.8819 206.839 17.8819C206.763 17.8819 206.674 17.9067 206.57 17.9562C206.467 18.0058 206.35 18.1022 206.22 18.2455C205.992 18.9507 205.543 19.5017 204.875 19.8984C204.207 20.2951 203.438 20.4934 202.569 20.4934C201.211 20.4934 200.124 20.0279 199.309 19.0967C198.832 18.5509 198.494 17.8243 198.296 16.9168L198.28 16.8405H205.731C206.202 16.8405 206.572 16.7161 206.84 16.4673L206.904 16.4025C207.176 16.1105 207.312 15.7111 207.312 15.2042C207.312 14.0361 207.038 12.9755 206.489 12.0224C205.94 11.0692 205.155 10.3144 204.134 9.7579C203.112 9.20142 201.895 8.92319 200.483 8.92319C198.82 8.92319 197.397 9.25377 196.213 9.91492C195.028 10.5761 194.124 11.4989 193.499 12.6835C192.874 13.8681 192.562 15.2483 192.562 16.824C192.562 18.3226 192.885 19.6422 193.531 20.7827C194.178 21.9232 195.077 22.8102 196.229 23.4438C197.381 24.0775 198.717 24.3943 200.238 24.3943ZM198.087 14.7248C198.087 14.9984 198.095 15.262 198.11 15.5156L198.112 15.5513H200.646C201.059 15.5513 201.265 15.3199 201.265 14.8571C201.265 13.3474 201.099 12.2675 200.768 11.6174C200.437 10.9673 200.081 10.6422 199.7 10.6422C199.407 10.6422 199.141 10.7662 198.902 11.0141C198.663 11.262 198.467 11.6835 198.315 12.2786C198.163 12.8736 198.087 13.689 198.087 14.7248ZM217.189 24.0637C217.45 24.0637 217.648 23.9948 217.784 23.8571C217.92 23.7193 217.988 23.5403 217.988 23.3199C217.988 23.1326 217.939 22.97 217.841 22.8323C217.743 22.6945 217.58 22.6091 217.352 22.5761L216.129 22.3281C215.923 22.2841 215.771 22.1711 215.673 21.9893C215.575 21.8075 215.526 21.5623 215.526 21.2538V15.4356C215.526 14.7854 215.564 14.251 215.641 13.8323C215.717 13.4135 215.828 13.1023 215.975 12.8984C216.121 12.6945 216.292 12.5926 216.488 12.5926C216.684 12.5926 216.825 12.6642 216.912 12.8075C216.999 12.9507 217.048 13.1491 217.059 13.4025L217.075 14.0637C217.097 14.813 217.3 15.3915 217.686 15.7992C218.072 16.2069 218.667 16.4108 219.471 16.4108C220.297 16.4108 220.97 16.1133 221.492 15.5182C222.013 14.9232 222.274 13.9921 222.274 12.7248C222.274 11.4466 222.024 10.4934 221.524 9.86534C221.025 9.23724 220.307 8.92319 219.373 8.92319C218.601 8.92319 217.89 9.16286 217.238 9.64219C216.586 10.1215 216.062 10.8543 215.665 11.8405C215.599 12.0049 215.538 12.1766 215.483 12.3555L215.455 12.4507L215.331 9.88186C215.302 9.57822 215.249 9.35729 215.173 9.21907L215.143 9.17112C215.051 9.03889 214.913 8.97277 214.728 8.97277C214.597 8.97277 214.44 8.99481 214.255 9.03889C214.07 9.08297 213.842 9.1601 213.571 9.27029L208.942 10.6091C208.681 10.7083 208.496 10.8268 208.388 10.9645C208.279 11.1022 208.225 11.2593 208.225 11.4356C208.225 11.5899 208.26 11.7166 208.331 11.8157C208.401 11.9149 208.513 12.0086 208.665 12.0967L209.088 12.1463C209.23 12.2124 209.33 12.3034 209.39 12.4191C209.45 12.5348 209.48 12.7248 209.48 12.9893V21.386C209.48 21.7166 209.452 21.9535 209.398 22.0967C209.344 22.24 209.246 22.3447 209.105 22.4108L208.73 22.5596C208.589 22.6587 208.477 22.7662 208.396 22.8819C208.314 22.9976 208.274 23.1436 208.274 23.3199C208.274 23.5513 208.341 23.7331 208.477 23.8653C208.613 23.9976 208.801 24.0637 209.04 24.0637H217.189ZM234.351 23.105C233.319 23.9976 231.836 24.4438 229.902 24.4438C229.25 24.4438 228.709 24.3832 228.28 24.262C227.851 24.1408 227.503 24.0196 227.237 23.8984C226.971 23.7772 226.756 23.7166 226.593 23.7166C226.43 23.7166 226.216 23.7772 225.949 23.8984L225.151 24.262C224.885 24.3832 224.659 24.4438 224.474 24.4438C224.311 24.4438 224.159 24.3888 224.018 24.2786C223.877 24.1684 223.768 23.948 223.692 23.6174L223.187 20.3281C223.089 19.9094 223.073 19.5568 223.138 19.2703C223.203 18.9838 223.35 18.7965 223.578 18.7083C223.817 18.5981 224.053 18.5926 224.287 18.6918C224.521 18.791 224.73 18.9673 224.914 19.2207C225.534 20.1794 226.093 20.9342 226.593 21.4852C227.093 22.0361 227.579 22.4246 228.052 22.6505C228.525 22.8764 229.022 22.9893 229.543 22.9893C230.097 22.9893 230.51 22.8571 230.782 22.5926C231.054 22.3281 231.189 21.9921 231.189 21.5843C231.189 21.2758 231.111 20.9948 230.953 20.7414C230.796 20.4879 230.508 20.2538 230.089 20.0389C229.671 19.824 229.071 19.6119 228.288 19.4025C227.082 19.094 226.083 18.6918 225.289 18.1959C224.496 17.7 223.907 17.105 223.521 16.4108C223.135 15.7166 222.942 14.9067 222.942 13.981C222.942 12.9342 223.2 12.0334 223.717 11.2786C224.233 10.5237 224.939 9.94247 225.835 9.53476C226.732 9.12704 227.74 8.92319 228.859 8.92319C229.532 8.92319 230.081 8.9893 230.505 9.12153C230.929 9.25377 231.257 9.386 231.491 9.51823C231.725 9.65046 231.901 9.71657 232.021 9.71657C232.151 9.71657 232.344 9.65321 232.599 9.52649C232.855 9.39977 233.113 9.2758 233.373 9.15459C233.634 9.03338 233.852 8.97277 234.025 8.97277C234.221 8.97277 234.379 9.03889 234.498 9.17112C234.618 9.30335 234.699 9.52925 234.743 9.84881L235.166 12.8901C235.242 13.3309 235.253 13.6697 235.199 13.9067C235.145 14.1436 235.003 14.2951 234.775 14.3612C234.59 14.4053 234.395 14.3695 234.188 14.2538C233.982 14.1381 233.776 13.9535 233.569 13.7C232.776 12.4989 232.051 11.6505 231.393 11.1546C230.736 10.6587 230.038 10.4108 229.299 10.4108C228.766 10.4108 228.364 10.5265 228.093 10.7579C227.821 10.9893 227.685 11.2923 227.685 11.667C227.685 11.9204 227.745 12.1573 227.865 12.3777C227.984 12.5981 228.204 12.8047 228.525 12.9976C228.845 13.1904 229.299 13.3805 229.886 13.5678C231.461 14.0527 232.684 14.5678 233.553 15.1133C234.422 15.6587 235.031 16.2841 235.378 16.9893C235.726 17.6945 235.9 18.5155 235.9 19.4521C235.9 20.9948 235.384 22.2124 234.351 23.105Z" fill="white"/>
<path fill-rule="evenodd" clip-rule="evenodd" d="M14.3891 4.44653C10.8747 0.934974 5.66533 0.429466 2.77639 3.32151C-0.114045 6.21205 0.391444 11.4216 3.89987 14.9347C4.83584 15.8707 5.91432 16.5862 7.05279 17.0992C7.42629 14.9287 8.49726 12.8422 10.1232 11.1291C9.58474 10.9371 9.03275 10.7751 8.45676 10.6176C5.04584 9.68161 3.35088 6.83606 2.95489 3.50001C3.28241 3.89387 3.5806 4.30698 3.87792 4.71888C4.45478 5.51805 5.02833 6.31263 5.80632 6.95307C7.01657 7.9496 8.345 8.33429 9.79833 8.75515C9.85444 8.7714 9.91074 8.7877 9.96723 8.80409C10.6557 9.0036 11.2542 9.2991 11.8032 9.64411C13.2462 8.58959 14.8736 7.88758 16.5536 7.59808C16.0421 6.45956 15.3251 5.38254 14.3891 4.44653ZM8.44626 17.9332C8.66976 15.7597 9.72274 13.6342 11.4102 11.9466C14.9246 8.43509 20.134 7.92808 23.0229 10.8216C25.9134 13.7122 25.4094 18.9217 21.8965 22.4348C20.209 24.1223 18.0835 25.1753 15.9101 25.4003C15.6206 25.4288 15.3341 25.4438 15.0536 25.4438C13.1847 25.4438 11.5152 24.7883 10.2852 23.5583C8.86925 22.1438 8.21527 20.1458 8.44626 17.9332ZM13.5866 19.7168C14.7386 18.8377 15.9851 18.4897 17.3411 18.1192C20.752 17.1832 22.4454 14.3377 22.8429 11.0016C22.5182 11.3933 22.2222 11.8036 21.927 12.2127C21.3484 13.0147 20.7732 13.812 19.9915 14.4547C18.7775 15.4528 17.446 15.8382 15.9862 16.2606L15.8306 16.3057C12.4932 17.2747 10.8432 20.0963 10.4622 23.3798C10.791 22.9848 11.0922 22.5747 11.3918 22.1668C12.0421 21.2812 12.685 20.4058 13.5866 19.7168Z" fill="#0E8784"/>
</svg>
